<svg version="1.0" xmlns="http://www.w3.org/2000/svg"
                                                            width="407pt" height="487pt"  viewBox="-200 63 900 522"
                                                            preserveAspectRatio="xMidYMid meet">
                                                            <g transform="translate(0.000000,632.000000) scale(0.100000,-0.100000)"
                                                            fill="#000000" stroke="none">
                                                            <path fill="#000000 " d="M2135 6314 c-301 -35 -515 -132 -686 -310 -80 -84 -129 -164 -165
                                                            -269 -25 -70 -28 -95 -28 -200 0 -105 3 -130 28 -200 15 -44 44 -107 64 -140
                                                            47 -78 164 -199 241 -250 33 -22 61 -45 61 -52 0 -6 -13 -47 -28 -91 -31 -87
                                                            -78 -172 -129 -232 -18 -21 -33 -41 -33 -44 0 -10 41 -7 141 10 173 30 330 96
                                                            428 180 l44 39 166 1 c118 0 189 6 246 18 512 113 817 488 730 899 -59 278
                                                            -324 518 -668 607 -128 32 -300 46 -412 34z m-284 -647 c57 -38 81 -84 77
                                                            -143 -7 -82 -60 -135 -142 -142 -59 -4 -105 20 -143 77 -63 93 17 231 132 231
                                                            27 0 54 -8 76 -23z m477 -4 c43 -31 74 -100 67 -148 -11 -75 -78 -135 -150
                                                            -135 -166 0 -221 219 -73 294 42 21 120 16 156 -11z m440 13 c81 -42 114 -132
                                                            77 -210 -38 -79 -146 -111 -215 -64 -57 39 -83 85 -77 141 10 109 125 180 215
                                                            133z"/>
                                                            <path fill="#000000 "  d="M415 4876 c-183 -43 -321 -165 -383 -339 -35 -99 -37 -241 -3 -340
                                                            125 -368 592 -478 867 -203 274 274 166 740 -201 866 -77 27 -203 34 -280 16z"/>
                                                            <path fill="#000000 " d="M4243 4875 c-181 -39 -351 -206 -392 -385 -15 -66 -13 -197 4 -265
                                                            23 -88 62 -152 140 -231 111 -112 238 -161 395 -151 196 11 352 115 446 297
                                                            28 54 29 58 29 220 l0 165 -33 68 c-108 219 -349 334 -589 282z"/>
                                                            <path fill="#000000 " d="M386 3600 c-111 -28 -219 -118 -273 -228 l-28 -57 0 -775 0 -775 32
                                                            -68 c63 -133 196 -234 338 -257 33 -5 225 -10 426 -10 363 0 366 0 399 -23 19
                                                            -12 43 -38 54 -57 20 -34 21 -53 26 -621 l5 -586 27 -39 c15 -21 44 -50 65
                                                            -64 34 -23 45 -25 159 -25 120 0 123 1 166 30 23 17 54 51 68 75 l25 45 3 684
                                                            c2 437 -1 704 -8 740 -34 185 -189 334 -375 361 -38 5 -188 10 -332 10 l-262
                                                            0 -3 673 -3 672 -32 67 c-41 87 -114 160 -199 200 -54 25 -81 31 -152 34 -48
                                                            2 -104 -1 -126 -6z"/>
                                                            <path  fill="#000000 " d="M4296 3600 c-111 -28 -219 -118 -273 -228 l-28 -57 -3 -677 -3 -678
                                                            -262 0 c-144 0 -293 -5 -332 -10 -185 -27 -337 -167 -375 -347 -7 -31 -10
                                                            -289 -8 -733 3 -683 3 -685 25 -726 26 -49 80 -98 130 -119 45 -19 163 -20
                                                            207 -1 51 21 107 76 132 131 l24 50 0 548 c0 599 -1 585 59 642 l32 30 412 6
                                                            c292 4 424 9 452 19 158 50 282 182 315 337 7 31 10 303 8 783 l-3 735 -32 67
                                                            c-41 87 -114 160 -199 200 -54 25 -81 31 -152 34 -48 2 -104 -1 -126 -6z"/>
                                                            <path  fill="#000000 " d="M1227 2762 c-14 -16 -17 -43 -17 -165 0 -134 2 -149 20 -167 20 -20
                                                            33 -20 1213 -20 1187 0 1193 0 1215 20 21 20 22 30 22 165 0 132 -2 147 -20
                                                            165 -20 20 -33 20 -1218 20 -1149 0 -1200 -1 -1215 -18z"/>
                                                            </g>
                                                            </svg>